# xmcd
#
# Track frame offsets:
#	150
#	11565
#	25630
#	38140
#	48424
#	60271
#	69208
#	81943
#	93207
#	104104
#	117263
#	130010
#	140451
#	153007
#	165656
#	179749
#	190822
#
# Disc length: 2726 seconds
#
# Revision: 1
# Processed by: cddbd v1.5.2PL0 Copyright (c) Steve Scherf et al.
# Submitted via: audiograbber 1.83.01
#
DISCID=d50aa411
DTITLE=Dolly Parton - The Real... Dolly Parton CD1
DYEAR=2013
DGENRE=Country
TTITLE0=Dumb Blonde
TTITLE1=Just Because I'm A Woman
TTITLE2=D-I-V-O-R-C-E
TTITLE3=You're Gonna Be Sorry
TTITLE4=The Last Thing On My Mind
TTITLE5=We'll Get Ahead Someday
TTITLE6=Jeannie's Afraid Of The Dark
TTITLE7=Yours Love
TTITLE8=Just Someone I Used To Know
TTITLE9=The Right Combination
TTITLE10=Please Don't Stop Loving Me
TTITLE11=Together You And I
TTITLE12=In The Ghetto
TTITLE13=Mama Say A Prayer
TTITLE14=Coat Of Many Colors
TTITLE15=Letter To Heaven
TTITLE16=Joshua
EXTD=
EXTT0=
EXTT1=
EXTT2=
EXTT3=
EXTT4=
EXTT5=
EXTT6=
EXTT7=
EXTT8=
EXTT9=
EXTT10=
EXTT11=
EXTT12=
EXTT13=
EXTT14=
EXTT15=
EXTT16=
PLAYORDER=
